# xmcd
# 
# Track frame offsets:
#     150
#     18114
#     36190
#     52517
# 
# Disc length: 965
# 
# Revision: 3
# Processed by: cddbd v1.5.2PL0 Copyright (c) Steve Scherf et al.
# Submitted via: BonkEnc v1.0.5
# 
DISCID=1e03c304
DTITLE=Room 2012 - Haunted
DYEAR=2007
DGENRE=Pop
TTITLE0=Haunted (Radio edit)
TTITLE1=Haunted (beathoavenz cut)
TTITLE2=First thing (Radio edit)
TTITLE3=First thing (fARh0t rmx)
EXTD=
EXTT0=
EXTT1=
EXTT2=
EXTT3=
PLAYORDER=
